<svg viewBox="0 0 1284 232" fill="none" xmlns="http://www.w3.org/2000/svg">
<path d="M8.01949 139.88C7.71706 139.172 8.02159 138.205 8.83087 137.859L19.655 133.236C25.2188 130.86 31.7152 133.468 34.0915 139.032L55.6939 189.612C58.1134 195.277 55.4622 201.672 49.8984 204.048L39.0743 208.671C38.265 209.017 37.3988 208.669 37.0532 207.86L8.01949 139.88ZM46.3809 198.613C48.4041 197.749 49.3314 195.439 48.4673 193.416L26.3896 141.723C25.5255 139.7 23.2157 138.773 21.1925 139.637L18.7646 140.674C18.0565 140.976 17.6076 141.886 17.9533 142.695L41.932 198.839C42.2776 199.648 43.245 199.953 43.9531 199.65L46.3809 198.613Z" fill="#FFDF80"/>
<path d="M63.588 120.569C63.8731 121.284 63.5451 122.244 62.7276 122.57L58.0273 124.443C57.312 124.728 56.8411 125.627 57.1669 126.444L66.6972 150.355C67.023 151.172 67.9826 151.5 68.6979 151.215L73.3983 149.342C74.2158 149.016 75.0732 149.385 75.399 150.202L76.6209 153.267C76.9467 154.085 76.578 154.942 75.7605 155.268L71.0601 157.142C70.3448 157.427 69.9147 158.427 70.1997 159.142L79.7708 183.155C80.0966 183.973 81.0562 184.301 81.7715 184.016L86.4719 182.142C87.2894 181.816 88.1468 182.185 88.4726 183.003L89.6945 186.068C90.0203 186.886 89.6516 187.743 88.8341 188.069L76.6744 192.915C75.8569 193.241 74.9995 192.872 74.6736 192.055L47.3046 123.388C47.0195 122.673 47.3475 121.713 48.165 121.388L60.3247 116.541C61.1422 116.215 62.0404 116.686 62.3255 117.401L63.588 120.569Z" fill="#FFDF80"/>
<path d="M112.438 129.614C113.356 132.09 113.333 134.562 112.642 136.812C112.356 137.622 112.624 138.344 113.33 138.669C115.321 139.925 116.987 141.888 117.866 144.261L124.709 162.724C126.85 168.5 123.89 174.758 118.217 176.861L107.181 180.951C106.356 181.257 105.507 180.867 105.202 180.042L79.5134 110.729C79.2458 110.007 79.5971 109.056 80.4223 108.75L91.4587 104.66C97.1316 102.557 103.493 105.479 105.596 111.151L112.438 129.614ZM97.772 113.464C97.0074 111.402 94.7455 110.363 92.6826 111.127L90.2072 112.045C89.4851 112.312 88.9925 113.199 89.2983 114.024L98.2433 138.16C98.5491 138.985 99.5004 139.336 100.222 139.069L102.698 138.151C104.761 137.387 105.799 135.125 105.035 133.062L97.772 113.464ZM114.969 171.261C117.031 170.496 118.07 168.234 117.306 166.171L110.043 146.574C109.278 144.511 107.016 143.472 104.953 144.237L102.478 145.154C101.756 145.422 101.263 146.308 101.569 147.133L110.514 171.269C110.82 172.094 111.771 172.446 112.493 172.178L114.969 171.261Z" fill="#FFDF80"/>
<path d="M135.019 90.8796C134.771 90.1506 135.252 89.1736 135.981 88.9257L140.771 87.296C141.604 87.0125 142.477 87.5289 142.725 88.2579L163.486 149.283C165.47 155.115 162.343 161.291 156.615 163.24L154.428 163.984C148.596 165.968 142.456 162.945 140.472 157.113L119.711 96.0875C119.463 95.3586 119.84 94.417 120.673 94.1336L125.359 92.5393C126.192 92.2559 127.065 92.7723 127.313 93.5013L148.286 155.151C148.995 157.234 151.332 158.298 153.311 157.625L153.519 157.554C155.602 156.845 156.701 154.612 155.993 152.53L135.019 90.8796Z" fill="#FFDF80"/>
<path d="M177.413 77.2221C177.185 76.4867 177.587 75.5557 178.427 75.2948L182.209 74.1211C183.05 73.8602 183.908 74.4 184.136 75.1354L206.046 145.734C206.307 146.574 205.873 147.4 205.032 147.661L199.989 149.226C199.254 149.454 198.566 149.092 198.16 148.527L174.16 103.11C174.127 103.005 174.022 103.037 174.055 103.142L188.922 151.048C189.183 151.889 188.643 152.747 187.908 152.975L184.126 154.149C183.285 154.41 182.459 153.975 182.198 153.135L160.289 82.5365C160.06 81.8012 160.462 80.8701 161.303 80.6093L166.03 79.1421C166.766 78.9139 167.559 79.2435 167.893 79.9463L192.494 126.559C192.632 126.631 192.737 126.599 192.704 126.494L177.413 77.2221Z" fill="#FFDF80"/>
<path d="M222.805 62.4163C223.335 62.2673 223.907 62.6776 223.845 63.2667L221.481 94.6703C221.336 96.9967 221.885 99.356 223.117 101.295L244.132 135.377C244.387 135.877 244.189 136.39 243.659 136.539L238.577 137.969C237.941 138.147 237.293 137.873 236.902 137.297L220.089 110.031L228.312 139.257C228.55 140.104 227.988 140.948 227.246 141.156L223.117 142.318C222.27 142.556 221.456 142.1 221.217 141.253L201.198 70.0953C200.989 69.3541 201.416 68.4341 202.263 68.1958L206.393 67.0339C207.134 66.8254 208.084 67.3581 208.292 68.0993L214.608 90.5478L216.538 65.3222C216.571 64.6273 216.982 64.0548 217.617 63.8761L222.805 62.4163Z" fill="#FFDF80"/>
<path d="M264.724 53.1189C264.546 52.3696 265.011 51.4682 265.76 51.2909L286.526 46.3751C287.383 46.1724 288.202 46.7697 288.38 47.519L289.165 50.8373C289.343 51.5866 288.878 52.4879 288.021 52.6906L283.098 53.8562C282.348 54.0336 281.751 54.8532 281.954 55.7095L297.486 121.326C297.689 122.182 297.199 122.977 296.343 123.179L291.419 124.345C290.669 124.522 289.768 124.058 289.565 123.201L274.033 57.5846C273.83 56.7283 273.036 56.238 272.179 56.4408L267.362 57.581C266.506 57.7837 265.686 57.1865 265.509 56.4372L264.724 53.1189Z" fill="#FFDF80"/>
<path d="M322.238 40.199C322.081 39.4452 322.678 38.5343 323.432 38.3772L328.385 37.345C329.247 37.1655 330.05 37.7846 330.207 38.5384L345.287 110.904C345.467 111.765 344.955 112.546 344.094 112.726L339.14 113.758C338.386 113.915 337.498 113.426 337.318 112.565L330.743 81.0123C330.586 80.2585 329.783 79.6393 328.921 79.8188L323.968 80.8511C323.214 81.0082 322.617 81.9191 322.774 82.6729L329.349 114.225C329.529 115.087 329.017 115.867 328.156 116.047L323.31 117.057C322.449 117.236 321.668 116.725 321.488 115.863L306.408 43.4977C306.251 42.7439 306.74 41.8555 307.602 41.6759L312.448 40.6661C313.309 40.4866 314.113 41.1058 314.27 41.8596L320.845 73.4118C321.024 74.2733 321.913 74.7623 322.666 74.6053L327.62 73.573C328.481 73.3935 328.993 72.6127 328.813 71.7512L322.238 40.199Z" fill="#FFDF80"/>
<path d="M364.692 35.5058C364.83 36.2632 364.32 37.1395 363.454 37.298L358.477 38.2092C357.72 38.3479 357.081 39.1358 357.239 40.0014L361.875 65.3206C362.033 66.1862 362.91 66.6967 363.667 66.558L368.644 65.6468C369.51 65.4883 370.278 66.0186 370.437 66.8843L371.031 70.1303C371.189 70.9959 370.659 71.764 369.793 71.9225L364.816 72.8337C364.059 72.9724 363.44 73.8685 363.579 74.6259L368.234 100.053C368.393 100.919 369.269 101.429 370.026 101.291L375.003 100.379C375.869 100.221 376.637 100.751 376.796 101.617L377.39 104.863C377.548 105.729 377.018 106.497 376.152 106.655L363.276 109.013C362.411 109.171 361.643 108.641 361.484 107.775L348.172 35.0637C348.033 34.3063 348.544 33.43 349.409 33.2715L362.285 30.9141C363.151 30.7556 363.939 31.3942 364.078 32.1516L364.692 35.5058Z" fill="#FFDF80"/>
<path d="M409.792 47.5826C409.912 48.3431 409.38 49.2067 408.511 49.344L403.513 50.1338C402.752 50.254 401.872 49.6136 401.751 48.853L399.605 35.2715C399.262 33.0985 397.249 31.6347 395.076 31.9781L394.859 32.0124C392.794 32.3386 391.222 34.3689 391.565 36.542L391.84 38.2804C392.252 40.8881 393.19 43.3012 394.454 45.6629L413.289 78.8802C414.662 81.2247 415.509 83.7637 415.921 86.3713L416.316 88.8703C417.277 94.9548 413.143 100.508 407.167 101.452L404.886 101.813C398.801 102.774 393.265 98.749 392.304 92.6645L390.26 79.7349C390.123 78.8657 390.672 78.1108 391.541 77.9734L396.431 77.2009C397.3 77.0635 398.055 77.6124 398.192 78.4816L400.338 92.0631C400.681 94.2362 402.803 95.6827 404.868 95.3565L405.085 95.3222C407.258 94.9788 408.722 92.9657 408.378 90.7927L408.104 89.0542C407.692 86.4466 406.845 83.9076 405.489 81.6718L386.637 48.3458C385.39 46.0928 384.543 43.5538 384.131 40.9462L383.719 38.3385C382.775 32.3627 386.783 26.7179 392.868 25.7565L395.149 25.396C401.125 24.4517 406.787 28.5685 407.731 34.5443L409.792 47.5826Z" fill="#FFDF80"/>
<path d="M440.846 23.851C440.948 24.6142 440.395 25.4646 439.523 25.5807L434.507 26.2485C433.744 26.3501 433.068 27.1059 433.184 27.9782L436.581 53.4931C436.697 54.3654 437.547 54.918 438.31 54.8164L443.326 54.1487C444.198 54.0325 444.94 54.5997 445.056 55.472L445.491 58.7431C445.608 59.6154 445.04 60.3567 444.168 60.4729L439.152 61.1406C438.389 61.2422 437.727 62.1071 437.829 62.8704L441.24 88.4943C441.356 89.3666 442.207 89.9192 442.97 89.8176L447.986 89.1498C448.858 89.0337 449.6 89.6008 449.716 90.4731L450.151 93.7443C450.267 94.6166 449.7 95.3579 448.828 95.474L435.852 97.2015C434.98 97.3176 434.239 96.7505 434.123 95.8782L424.368 22.6047C424.266 21.8414 424.819 20.991 425.691 20.8749L438.666 19.1475C439.539 19.0313 440.295 19.7075 440.396 20.4708L440.846 23.851Z" fill="#FFDF80"/>
<path d="M507.374 13.1057C507.424 12.4385 508.022 11.7219 508.789 11.6528L513.828 11.1986C514.705 11.1196 515.431 11.8273 515.5 12.5942L522.135 86.2158C522.214 87.0922 521.616 87.8088 520.74 87.8878L516.796 88.2433C515.919 88.3222 515.203 87.7242 515.124 86.8477L511.036 41.4915L509.093 81.2063C509.053 81.983 508.445 82.59 507.678 82.6592L502.967 83.0837C502.2 83.1528 501.493 82.6643 501.315 81.9073L492.332 43.5086L496.39 88.5361C496.469 89.4125 495.871 90.1291 494.994 90.2081L491.05 90.5636C490.174 90.6426 489.457 90.0445 489.378 89.168L482.743 15.5464C482.674 14.7795 483.262 13.9534 484.139 13.8744L489.178 13.4202C489.945 13.3511 490.662 13.9492 490.831 14.5966L503.982 71.0641C504.012 71.3927 504.45 71.3533 504.53 71.0147L507.374 13.1057Z" fill="#FFDF80"/>
<path d="M551.406 9.87233C551.476 9.2069 552.102 8.61816 552.761 8.57842L556.714 8.33997C557.702 8.28036 558.53 9.2222 558.363 10.1138L552.843 46.4822C552.78 47.2575 552.716 48.0327 552.763 48.8013L554.889 84.0472C554.942 84.9256 554.323 85.6242 553.444 85.6772L548.394 85.9818C547.625 86.0282 546.817 85.4158 546.764 84.5374L544.565 48.0836L534.537 11.5512C534.264 10.686 534.973 9.65143 535.961 9.59181L539.804 9.35999C540.573 9.31363 541.265 9.82289 541.414 10.4751L547.494 32.6993C547.617 32.9123 547.946 32.8924 547.933 32.6728L551.406 9.87233Z" fill="#FFDF80"/>
<path d="M576.213 8.93726C576.188 8.1677 576.821 7.37597 577.591 7.35011L598.919 6.63361C599.798 6.60406 600.484 7.35147 600.51 8.12103L600.624 11.5291C600.65 12.2987 600.016 13.0904 599.137 13.1199L594.08 13.2898C593.31 13.3157 592.563 14.0012 592.592 14.8807L594.856 82.2727C594.886 83.1522 594.248 83.834 593.369 83.8635L588.312 84.0334C587.542 84.0593 586.75 83.4255 586.721 82.546L584.457 15.154C584.427 14.2745 583.745 13.637 582.866 13.6666L577.919 13.8328C577.039 13.8623 576.354 13.1149 576.328 12.3453L576.213 8.93726Z" fill="#FFDF80"/>
<path d="M635.147 7.6342C635.142 6.86422 635.907 6.08917 636.677 6.0841L641.737 6.05078C642.617 6.04498 643.282 6.81062 643.287 7.5806L643.774 81.499C643.779 82.379 643.124 83.0433 642.244 83.0491L637.184 83.0824C636.414 83.0875 635.64 82.4326 635.634 81.5526L635.422 49.3233C635.417 48.5533 634.751 47.7877 633.872 47.7935L628.812 47.8268C628.042 47.8319 627.277 48.6069 627.282 49.3769L627.494 81.6062C627.5 82.4862 626.844 83.1505 625.964 83.1563L621.014 83.1889C620.134 83.1947 619.47 82.5391 619.464 81.6591L618.977 7.74068C618.972 6.9707 619.627 6.19636 620.507 6.19057L625.457 6.15798C626.337 6.15218 627.002 6.91782 627.007 7.6878L627.219 39.9171C627.225 40.7971 628 41.452 628.77 41.4469L633.829 41.4136C634.709 41.4078 635.365 40.7435 635.359 39.8635L635.147 7.6342Z" fill="#FFDF80"/>
<path d="M685.601 30.8505C685.585 31.6203 684.909 32.3767 684.03 32.3588L678.971 32.2555C678.201 32.2398 677.447 31.4542 677.462 30.6844L677.743 16.9372C677.788 14.7377 676.064 12.9421 673.865 12.8972L673.645 12.8927C671.555 12.8501 669.65 14.5715 669.605 16.7711L669.569 18.5307C669.515 21.1702 670.013 23.7109 670.841 26.2583L683.529 62.2748C684.467 64.8244 684.853 67.4729 684.799 70.1123L684.747 72.6418C684.622 78.8005 679.574 83.5385 673.525 83.415L671.216 83.3678C665.057 83.2421 660.317 78.3043 660.443 72.1456L660.71 59.0583C660.728 58.1785 661.401 57.5321 662.281 57.5501L667.23 57.6511C668.11 57.6691 668.756 58.3424 668.738 59.2222L668.457 72.9694C668.412 75.1689 670.246 76.9667 672.336 77.0094L672.556 77.0139C674.755 77.0588 676.551 75.3351 676.596 73.1355L676.632 71.3759C676.685 68.7364 676.299 66.088 675.359 63.6483L662.674 27.5218C661.843 25.0844 661.457 22.436 661.511 19.7965L661.565 17.1571C661.689 11.1083 666.629 6.25814 672.787 6.38387L675.097 6.43102C681.146 6.55451 685.994 11.6045 685.87 17.6533L685.601 30.8505Z" fill="#FFDF80"/>
<path d="M750.938 40.5548C750.773 43.1896 749.75 45.4401 748.206 47.217C747.616 47.8414 747.567 48.6099 748.082 49.1932C749.392 51.1489 750.119 53.6192 749.961 56.1442L748.73 75.7957C748.345 81.9437 743.102 86.4648 737.064 86.0865L725.317 85.3508C724.439 85.2957 723.821 84.5958 723.876 83.7175L728.497 9.94207C728.546 9.17358 729.252 8.44634 730.131 8.50136L741.878 9.23715C747.916 9.61536 752.547 14.8651 752.168 20.9033L750.938 40.5548ZM744.079 19.8455C744.216 17.6498 742.57 15.7832 740.374 15.6457L737.739 15.4807C736.971 15.4325 736.161 16.0431 736.106 16.9214L734.497 42.611C734.442 43.4893 735.169 44.1961 735.938 44.2443L738.572 44.4093C740.768 44.5469 742.635 42.9003 742.772 40.7046L744.079 19.8455ZM736.365 79.6503C738.561 79.7878 740.427 78.1413 740.565 75.9456L741.871 55.0864C742.009 52.8907 740.362 51.0242 738.167 50.8866L735.532 50.7216C734.763 50.6735 733.954 51.284 733.899 52.1623L732.289 77.852C732.234 78.7302 732.962 79.4371 733.73 79.4852L736.365 79.6503Z" fill="#FFDF80"/>
<path d="M786.816 17.669C786.749 18.4361 786.025 19.1459 785.148 19.0695L780.107 18.6302C779.34 18.5634 778.516 19.154 778.44 20.0307L776.205 45.6735C776.129 46.5502 776.839 47.2746 777.606 47.3414L782.647 47.7807C783.523 47.8571 784.123 48.5719 784.047 49.4485L783.761 52.7361C783.684 53.6128 782.969 54.213 782.093 54.1366L777.052 53.6973C776.285 53.6305 775.451 54.3307 775.384 55.0978L773.14 80.8502C773.064 81.7269 773.773 82.4513 774.54 82.5181L779.581 82.9574C780.458 83.0338 781.058 83.7486 780.982 84.6252L780.695 87.9128C780.619 88.7895 779.904 89.3897 779.027 89.3133L765.987 88.177C765.11 88.1006 764.51 87.3858 764.586 86.5091L771.003 12.8681C771.07 12.101 771.794 11.3912 772.671 11.4676L785.712 12.604C786.588 12.6804 787.179 13.5047 787.112 14.2718L786.816 17.669Z" fill="#FFDF80"/>
<path d="M821.535 17.8332C821.621 17.068 822.471 16.3882 823.237 16.4738L828.265 17.0357C829.14 17.1334 829.71 17.9719 829.625 18.7372L821.416 92.2C821.318 93.0745 820.589 93.6571 819.714 93.5594L814.686 92.9975C813.92 92.912 813.228 92.1705 813.326 91.296L816.905 59.2653C816.991 58.5001 816.42 57.6616 815.546 57.5638L810.517 57.0019C809.752 56.9164 808.901 57.5961 808.816 58.3614L805.236 90.392C805.139 91.2666 804.41 91.8492 803.535 91.7515L798.616 91.2018C797.741 91.104 797.158 90.3748 797.256 89.5003L805.465 16.0375C805.551 15.2723 806.292 14.5803 807.167 14.678L812.086 15.2277C812.961 15.3255 813.531 16.164 813.445 16.9292L809.866 48.9599C809.769 49.8344 810.46 50.5759 811.226 50.6614L816.254 51.2233C817.129 51.321 817.858 50.7384 817.956 49.8639L821.535 17.8332Z" fill="#FFDF80"/>
<path d="M847.604 21.0243C847.706 20.2611 848.462 19.5855 849.334 19.7022L854.241 20.3586C855.113 20.4753 855.665 21.3261 855.563 22.0893L845.759 95.3563C845.643 96.2286 844.901 96.7952 844.029 96.6785L839.123 96.022C838.25 95.9053 837.684 95.1636 837.8 94.2914L847.604 21.0243Z" fill="#FFDF80"/>
<path d="M891.506 27.3948C891.625 26.634 892.395 25.9749 893.265 26.1105L897.177 26.7209C898.047 26.8565 898.58 27.719 898.462 28.4798L887.069 101.517C886.933 102.386 886.179 102.936 885.31 102.801L880.093 101.987C879.332 101.868 878.874 101.24 878.758 100.554L877.193 49.2094C877.21 49.1007 877.101 49.0838 877.084 49.1925L869.353 98.7531C869.217 99.6226 868.355 100.156 867.594 100.037L863.681 99.427C862.812 99.2914 862.262 98.5376 862.397 97.6681L873.79 24.6313C873.909 23.8705 874.68 23.2114 875.549 23.3471L880.44 24.11C881.201 24.2287 881.768 24.8738 881.758 25.6516L883.337 78.3344C883.429 78.4601 883.538 78.477 883.555 78.3684L891.506 27.3948Z" fill="#FFDF80"/>
<path d="M916.022 31.4619C916.161 30.7046 916.95 30.0665 917.815 30.2256L929.391 32.3529C935.342 33.4464 939.315 39.2095 938.222 45.1599L928.281 99.2541C927.168 105.313 921.425 109.178 915.474 108.085L903.898 105.957C903.033 105.798 902.503 105.03 902.662 104.165L916.022 31.4619ZM915.545 101.611C917.709 102.009 919.758 100.596 920.156 98.432L930.315 43.1477C930.713 40.9839 929.3 38.9348 927.136 38.5372L924.54 38.06C923.782 37.9209 922.906 38.4308 922.747 39.2963L911.713 99.3409C911.554 100.206 912.192 100.995 912.949 101.134L915.545 101.611Z" fill="#FFDF80"/>
<path d="M1001.06 50.9904L991.203 122.306C991.115 123.189 990.192 123.768 989.335 123.572L985.152 122.617C984.294 122.421 983.773 121.738 983.945 120.987L987.026 98.1086C987.198 97.3579 986.677 96.6748 985.819 96.4789L981.1 95.4012C980.35 95.2298 979.584 95.619 979.305 96.3452L972.256 118.317C971.977 119.043 971.211 119.433 970.461 119.261L966.278 118.306C965.313 118.086 964.841 117.188 965.144 116.354L987.226 47.8309C987.774 45.9251 989.857 44.7084 991.787 45.1493L998.007 46.5699C999.938 47.0107 1001.29 49.0112 1001.06 50.9904ZM986.513 89.9803C987.371 90.1763 988.186 89.5726 988.382 88.7146L992.323 59.6014C992.323 59.6014 992.519 58.7434 991.983 58.621C991.554 58.523 991.251 59.3564 991.251 59.3564L982.269 87.3186C981.966 88.152 982.438 89.0496 983.403 89.2701L986.513 89.9803Z" fill="#FFDF80"/>
<path d="M1041.49 88.9252C1040.83 91.4816 1039.4 93.499 1037.55 94.953C1036.85 95.4549 1036.66 96.2005 1037.05 96.8704C1037.97 99.038 1038.22 101.601 1037.59 104.051L1032.68 123.118C1031.14 129.083 1025.14 132.535 1019.28 131.025L1007.88 128.088C1007.03 127.869 1006.55 127.065 1006.77 126.213L1025.22 54.6312C1025.41 53.8855 1026.24 53.3046 1027.09 53.5242L1038.49 56.4611C1044.35 57.9708 1047.91 63.9994 1046.4 69.858L1041.49 88.9252ZM1038.65 67.2942C1039.2 65.1638 1037.94 63.0203 1035.81 62.4714L1033.25 61.8126C1032.51 61.6205 1031.59 62.0674 1031.38 62.9196L1024.95 87.8454C1024.73 88.6975 1025.31 89.5288 1026.06 89.7209L1028.62 90.3797C1030.75 90.9287 1032.89 89.6635 1033.44 87.5331L1038.65 67.2942ZM1019.8 124.573C1021.94 125.122 1024.08 123.857 1024.63 121.726L1029.84 101.487C1030.39 99.3569 1029.13 97.2134 1027 96.6644L1024.44 96.0056C1023.69 95.8135 1022.78 96.2605 1022.56 97.1126L1016.14 122.038C1015.92 122.891 1016.5 123.722 1017.25 123.914L1019.8 124.573Z" fill="#FFDF80"/>
<path d="M1063.98 74.6326C1065.65 68.8168 1071.66 65.3923 1077.58 67.0899L1079.8 67.7265C1085.62 69.3937 1089.01 75.5162 1087.35 81.3319L1072.19 134.202C1070.49 140.124 1064.4 143.412 1058.59 141.745L1056.36 141.108C1050.44 139.411 1047.12 133.424 1048.82 127.503L1063.98 74.6326ZM1059.29 135.309C1061.4 135.915 1063.58 134.708 1064.18 132.593L1079.67 78.56C1080.28 76.4452 1079.07 74.2683 1076.96 73.662L1076.75 73.6014C1074.63 72.9951 1072.46 74.202 1071.85 76.3168L1056.36 130.35C1055.75 132.465 1056.96 134.642 1059.07 135.248L1059.29 135.309Z" fill="#FFDF80"/>
<path d="M1122.04 112.681C1121.11 115.617 1119.12 117.875 1116.64 119.166C1117.93 121.651 1118.26 124.637 1117.33 127.574L1108.54 155.368C1108.28 156.208 1107.45 156.638 1106.61 156.373L1101.78 154.847C1101.05 154.615 1100.51 153.754 1100.78 152.915L1109.77 124.491C1110.43 122.394 1109.28 120.185 1107.18 119.522L1104.67 118.726C1103.93 118.494 1102.97 118.996 1102.73 119.73L1093.02 150.461C1092.75 151.3 1091.92 151.731 1091.09 151.465L1086.37 149.973C1085.53 149.708 1085.1 148.88 1085.36 148.041L1107.64 77.5588C1107.88 76.8246 1108.74 76.2894 1109.58 76.5547L1120.8 80.1025C1126.57 81.9261 1129.79 88.1379 1127.97 93.9065L1122.04 112.681ZM1106.59 112.643L1109.11 113.439C1111.2 114.102 1113.41 112.954 1114.08 110.856L1120.38 90.9285C1121.04 88.8308 1119.89 86.6222 1117.79 85.959L1115.28 85.1633C1114.54 84.9312 1113.61 85.3284 1113.34 86.1674L1105.58 110.71C1105.32 111.549 1105.85 112.411 1106.59 112.643Z" fill="#FFDF80"/>
<path d="M1148.36 90.6827C1148.61 89.955 1149.49 89.4432 1150.22 89.6951L1170.38 96.6745C1171.21 96.9623 1171.59 97.9058 1171.33 98.6334L1170.22 101.856C1169.97 102.584 1169.09 103.095 1168.26 102.808L1163.48 101.153C1162.75 100.901 1161.81 101.273 1161.52 102.104L1139.47 165.826C1139.18 166.658 1138.34 167.065 1137.51 166.778L1132.73 165.123C1132 164.871 1131.49 163.995 1131.77 163.164L1153.83 99.442C1154.11 98.6104 1153.71 97.7709 1152.88 97.4831L1148.2 95.8641C1147.37 95.5763 1146.99 94.6328 1147.25 93.9052L1148.36 90.6827Z" fill="#FFDF80"/>
<path d="M1188.37 104.821C1188.64 104.099 1189.52 103.607 1190.35 103.913L1194.99 105.633C1195.81 105.939 1196.17 106.89 1195.9 107.612L1170.21 176.925C1169.9 177.75 1169.06 178.14 1168.23 177.834L1163.59 176.114C1162.76 175.808 1162.37 174.96 1162.68 174.134L1188.37 104.821Z" fill="#FFDF80"/>
<path d="M1209.64 122.9C1211.87 117.274 1218.19 114.452 1223.91 116.717L1226.06 117.567C1231.69 119.792 1234.47 126.216 1232.25 131.842L1212.02 182.986C1209.75 188.715 1203.37 191.395 1197.74 189.169L1195.59 188.32C1189.87 186.054 1187.14 179.773 1189.41 174.045L1209.64 122.9ZM1199.07 182.832C1201.11 183.641 1203.4 182.652 1204.2 180.606L1224.88 128.336C1225.69 126.291 1224.7 124.007 1222.65 123.197L1222.45 123.116C1220.4 122.307 1218.12 123.297 1217.31 125.342L1196.64 177.612C1195.83 179.658 1196.82 181.942 1198.86 182.751L1199.07 182.832Z" fill="#FFDF80"/>
<path d="M1269.3 137.104C1269.6 136.396 1270.51 135.947 1271.32 136.292L1274.96 137.848C1275.77 138.193 1276.08 139.161 1275.78 139.869L1246.74 207.848C1246.4 208.658 1245.53 209.005 1244.72 208.66L1239.87 206.586C1239.16 206.283 1238.87 205.562 1238.92 204.868L1250.06 154.72C1250.1 154.619 1250 154.576 1249.95 154.677L1230.25 200.806C1229.91 201.615 1228.94 201.92 1228.23 201.617L1224.59 200.062C1223.78 199.716 1223.43 198.85 1223.78 198.041L1252.81 130.061C1253.11 129.353 1254.02 128.904 1254.83 129.25L1259.39 131.194C1260.09 131.497 1260.48 132.262 1260.28 133.013L1248.84 184.461C1248.89 184.606 1249 184.649 1249.04 184.548L1269.3 137.104Z" fill="#FFDF80"/>
</svg>
