<svg xmlns="http://www.w3.org/2000/svg" viewBox="0 0 309.68 301.21"><defs><style>.cls-1{fill:#ffdf80;stroke:#ffdf80;stroke-miterlimit:10;stroke-width:0.75px;font-family:Alvaro, sans-serif;}</style></defs><title>Asset 39</title><g id="Layer_2" data-name="Layer 2"><g id="Layer_1-2" data-name="Layer 1"><text class="cls-1" transform="translate(52.08 59.27) rotate(-29.36) scale(1 0.95)">D</text><text class="cls-1" transform="translate(63.82 52.76) rotate(-25.07) scale(1 0.95)">E</text><text class="cls-1" transform="translate(73.28 48.31) rotate(-21.09) scale(1 0.95)">B</text><text class="cls-1" transform="translate(85.84 43.49) rotate(-16.91) scale(1 0.95)">U</text><text class="cls-1" transform="translate(98.69 39.61) rotate(-12.97) scale(1 0.95)">N</text><text class="cls-1" transform="translate(112.03 36.56) rotate(-9.26) scale(1 0.95)">K</text><text class="cls-1" transform="matrix(0.99, -0.11, 0.11, 0.94, 125.21, 34.51)"> </text><text class="cls-1" transform="matrix(1, -0.07, 0.06, 0.95, 132.26, 33.64)">T</text><text class="cls-1" transform="matrix(1, -0.01, 0.01, 0.95, 145.72, 32.75)">H</text><text class="cls-1" transform="translate(159.29 32.67) rotate(2.15) scale(1 0.95)">E</text><text class="cls-1" transform="matrix(1, 0.08, -0.08, 0.95, 169.13, 33)">S</text><text class="cls-1" transform="translate(182.64 34.17) rotate(7.61) scale(1 0.95)">E</text><text class="cls-1" transform="matrix(0.99, 0.17, -0.16, 0.94, 193.22, 35.63)"> </text><text class="cls-1" transform="matrix(0.97, 0.23, -0.21, 0.93, 200.17, 36.72)">M</text><text class="cls-1" transform="translate(215.5 40.31) rotate(17.15) scale(1 0.95)">Y</text><text class="cls-1" transform="translate(226.66 43.71) rotate(20.91) scale(1 0.95)">T</text><text class="cls-1" transform="translate(238.43 48.18) rotate(25.34) scale(1 0.95)">H</text><text class="cls-1" transform="translate(250.46 53.89) rotate(30.55) scale(1 0.95)">S</text><text class="cls-1" transform="translate(70.41 90.03) rotate(-25.3) scale(1 0.95)">B</text><text class="cls-1" transform="translate(82.59 84.34) rotate(-21.38) scale(1 0.95)">E</text><text class="cls-1" transform="matrix(0.95, -0.3, 0.29, 0.91, 92.36, 80.49)">H</text><text class="cls-1" transform="translate(105.27 76.52) rotate(-14.25) scale(1 0.95)">I</text><text class="cls-1" transform="translate(112.63 74.58) rotate(-10.96) scale(1 0.95)">N</text><text class="cls-1" transform="matrix(0.99, -0.12, 0.11, 0.94, 126, 72.01)">D</text><text class="cls-1" transform="translate(139.46 70.5) rotate(-3.77) scale(1 0.95)"> </text><text class="cls-1" transform="translate(143.5 70.21) rotate(-2.56) scale(1 0.95)"> </text><text class="cls-1" transform="translate(145.91 69.98) rotate(-0.75) scale(1 0.95)">A</text><text class="cls-1" transform="matrix(1, 0.05, -0.05, 0.95, 160.24, 69.83)">B</text><text class="cls-1" transform="translate(173.68 70.58) rotate(6.88) scale(1 0.95)">O</text><text class="cls-1" transform="matrix(0.98, 0.19, -0.18, 0.93, 187.01, 72.2)">R</text><text class="cls-1" transform="matrix(0.97, 0.25, -0.24, 0.92, 199.45, 74.55)">T</text><text class="cls-1" transform="translate(211.77 77.81) rotate(17.48) scale(1 0.95)">I</text><text class="cls-1" transform="translate(219.78 80.28) rotate(21.06) scale(1 0.95)">O</text><text class="cls-1" transform="translate(232.29 85.11) rotate(25.53) scale(1 0.95)">N</text></g></g></svg>