<svg xmlns="http://www.w3.org/2000/svg" viewBox="0 0 725.96 315.5"><defs><style>.cls-1{font-size:60px;fill:#ffdf80;stroke:#ffdf80;stroke-miterlimit:10;font-family:AlvaroCondensed, Alvaro;}</style></defs><title>Asset 38</title><g id="Layer_2" data-name="Layer 2"><g id="Layer_1-2" data-name="Layer 1"><text class="cls-1" transform="translate(53.83 117.56) rotate(-29.91)">D</text><text class="cls-1" transform="translate(71.36 107.61) rotate(-26.27)">E</text><text class="cls-1" transform="matrix(0.92, -0.39, 0.39, 0.92, 85.56, 100.58)">B</text><text class="cls-1" transform="translate(104.23 92.62) rotate(-20.29)">U</text><text class="cls-1" transform="matrix(0.95, -0.3, 0.3, 0.95, 123.36, 85.58)">N</text><text class="cls-1" transform="translate(143.12 79.29) rotate(-15.5)">K</text><text class="cls-1" transform="translate(162.58 73.98) rotate(-13.96)"> </text><text class="cls-1" transform="translate(173.08 71.33) rotate(-12.5)">T</text><text class="cls-1" transform="matrix(0.98, -0.19, 0.19, 0.98, 193.11, 66.91)">H</text><text class="cls-1" transform="translate(213.33 63.13) rotate(-9.24)">E</text><text class="cls-1" transform="translate(229.24 60.53) rotate(-7.83)">S</text><text class="cls-1" transform="translate(249.63 57.77) rotate(-6.49)">E</text><text class="cls-1" transform="translate(265.75 55.97) rotate(-5.53)"> </text><text class="cls-1" transform="translate(276.57 54.86) rotate(-4.29)">M</text><text class="cls-1" transform="translate(301.73 53.02) rotate(-2.79)">Y</text><text class="cls-1" transform="translate(321.99 52.05) rotate(-1.48)">T</text><text class="cls-1" transform="matrix(1, -0.01, 0.01, 1, 342.58, 51.56)">H</text><text class="cls-1" transform="translate(363.14 51.47) rotate(1.23)">S</text><text class="cls-1" transform="matrix(1, 0.04, -0.04, 1, 383.77, 51.98)"> </text><text class="cls-1" transform="translate(394.64 52.39) rotate(3.46)">B</text><text class="cls-1" transform="translate(415.19 53.67) rotate(4.78)">E</text><text class="cls-1" transform="matrix(0.99, 0.11, -0.11, 0.99, 431.29, 55)">H</text><text class="cls-1" transform="matrix(0.99, 0.13, -0.13, 0.99, 451.76, 57.25)">I</text><text class="cls-1" transform="translate(463.39 58.71) rotate(8.53)">N</text><text class="cls-1" transform="translate(484 61.82) rotate(10.14)">D</text><text class="cls-1" transform="translate(504.27 65.51) rotate(11.4)"> </text><text class="cls-1" transform="translate(514.92 67.6) rotate(12.76)">A</text><text class="cls-1" transform="translate(536.2 72.45) rotate(14.62)">B</text><text class="cls-1" transform="translate(556.01 77.63) rotate(16.54)">O</text><text class="cls-1" transform="translate(575.6 83.46) rotate(18.63)">R</text><text class="cls-1" transform="matrix(0.94, 0.35, -0.35, 0.94, 592.73, 89.21)">T</text><text class="cls-1" transform="matrix(0.92, 0.38, -0.38, 0.92, 611.83, 96.51)">I</text><text class="cls-1" transform="translate(622.54 100.9) rotate(24.85)">O</text><text class="cls-1" transform="translate(640.88 109.4) rotate(28.11)">N</text></g></g></svg>