<svg width="364" height="117" viewBox="0 0 364 117" fill="none" xmlns="http://www.w3.org/2000/svg">
<path d="M3.32597 36.5019C3.20798 36.1873 3.35963 35.7715 3.71918 35.6367L8.52804 33.833C10.9999 32.9059 13.7809 34.1697 14.708 36.6416L23.1364 59.1129C24.0804 61.6297 22.7997 64.3658 20.3279 65.2929L15.519 67.0966C15.1594 67.2314 14.7886 67.0629 14.6538 66.7034L3.32597 36.5019ZM18.9007 62.8548C19.7996 62.5176 20.249 61.5288 19.9118 60.63L11.298 37.6643C10.9608 36.7654 9.97203 36.316 9.07317 36.6532L7.99455 37.0577C7.67995 37.1757 7.46649 37.5634 7.60135 37.9229L16.9569 62.8661C17.0918 63.2257 17.5075 63.3773 17.8221 63.2593L18.9007 62.8548Z" fill="#FFDF80"/>
<path d="M31.3636 28.1661C31.4686 28.4853 31.3 28.8945 30.9353 29.0145L28.8379 29.7046C28.5187 29.8096 28.2896 30.1882 28.4096 30.553L31.9203 41.2222C32.0403 41.587 32.4495 41.7556 32.7687 41.6505L34.866 40.9604C35.2308 40.8404 35.5944 41.0239 35.7144 41.3887L36.1645 42.7565C36.2845 43.1213 36.101 43.4849 35.7362 43.6049L33.6388 44.2951C33.3197 44.4001 33.1055 44.8243 33.2105 45.1434L36.7362 55.8583C36.8563 56.223 37.2654 56.3916 37.5846 56.2866L39.682 55.5964C40.0467 55.4764 40.4103 55.66 40.5304 56.0247L40.9804 57.3926C41.1005 57.7573 40.9169 58.1209 40.5522 58.2409L35.1263 60.0263C34.7616 60.1463 34.398 59.9628 34.278 59.598L24.196 28.9581C24.091 28.6389 24.2595 28.2297 24.6243 28.1097L30.0501 26.3244C30.4149 26.2044 30.7935 26.4335 30.8985 26.7527L31.3636 28.1661Z" fill="#FFDF80"/>
<path d="M55.2156 32.7819C55.5306 33.89 55.4368 34.9646 55.0597 35.9201C54.9076 36.2628 54.9994 36.586 55.2959 36.7512C56.1192 37.3655 56.7773 38.2763 57.0792 39.3382L59.4283 47.6028C60.1633 50.1884 58.663 52.8105 56.1236 53.5323L51.1833 54.9365C50.814 55.0415 50.4582 54.8433 50.3532 54.4739L41.534 23.4469C41.4421 23.1238 41.6273 22.7218 41.9966 22.6168L46.9369 21.2126C49.4763 20.4908 52.1446 21.9779 52.8664 24.5173L55.2156 32.7819ZM49.3841 25.2576C49.1217 24.3342 48.173 23.8054 47.2495 24.0679L46.1414 24.3829C45.8182 24.4747 45.5738 24.8436 45.6788 25.213L48.7497 36.017C48.8547 36.3864 49.2567 36.5716 49.5799 36.4797L50.688 36.1647C51.6114 35.9022 52.1402 34.9535 51.8777 34.0301L49.3841 25.2576ZM54.9007 50.9856C55.8242 50.7231 56.3529 49.7744 56.0904 48.851L53.5969 40.0785C53.3344 39.1551 52.3857 38.6263 51.4623 38.8888L50.3542 39.2038C50.031 39.2956 49.7865 39.6645 49.8915 40.0339L52.9625 50.8379C53.0675 51.2073 53.4694 51.3925 53.7926 51.3006L54.9007 50.9856Z" fill="#FFDF80"/>
<path d="M69.9363 15.9672C69.8592 15.6402 70.109 15.2361 70.4361 15.1589L72.5851 14.6519C72.9588 14.5637 73.3163 14.8246 73.3934 15.1517L79.852 42.5281C80.4692 45.1443 78.8519 47.6959 76.2824 48.302L75.3013 48.5335C72.6851 49.1507 70.1446 47.5801 69.5274 44.9639L63.0688 17.5874C62.9917 17.2604 63.1948 16.8672 63.5686 16.7791L65.6709 16.2831C66.0446 16.1949 66.4021 16.4558 66.4792 16.7828L73.0039 44.4396C73.2244 45.374 74.1949 45.9341 75.0825 45.7247L75.176 45.7026C76.1103 45.4822 76.6815 44.5584 76.461 43.624L69.9363 15.9672Z" fill="#FFDF80"/>
<path d="M92.5352 11.258C92.4729 10.9278 92.6936 10.5442 93.071 10.4731L94.769 10.1528C95.1464 10.0816 95.4917 10.3584 95.554 10.6886L101.532 42.3857C101.604 42.7631 101.374 43.0994 100.997 43.1706L98.7325 43.5976C98.4024 43.6599 98.122 43.4686 97.9743 43.2033L89.8343 22.3182C89.8254 22.271 89.7783 22.2799 89.7872 22.3271L93.844 43.8358C93.9152 44.2132 93.6384 44.5585 93.3082 44.6208L91.6101 44.941C91.2328 45.0122 90.8964 44.7826 90.8252 44.4052L84.8467 12.7081C84.7845 12.3779 85.0052 11.9944 85.3825 11.9232L87.5051 11.5228C87.8353 11.4606 88.1628 11.643 88.2722 11.9643L96.6133 33.3977C96.6694 33.436 96.7166 33.4271 96.7077 33.3799L92.5352 11.258Z" fill="#FFDF80"/>
<path d="M116.613 6.74911C116.851 6.71534 117.075 6.92594 117.014 7.17706L114.173 20.6225C113.975 21.6202 114.076 22.6724 114.497 23.5824L121.613 39.5399C121.694 39.7708 121.578 39.9811 121.341 40.0149L119.06 40.3391C118.775 40.3796 118.51 40.2232 118.374 39.9516L112.682 27.1856L114.546 40.3018C114.6 40.682 114.307 41.0144 113.975 41.0617L112.121 41.325C111.741 41.3791 111.416 41.1345 111.362 40.7543L106.823 8.81913C106.776 8.48647 107.014 8.11329 107.394 8.05926L109.247 7.79588C109.58 7.74861 109.96 8.03399 110.007 8.36665L111.439 18.4414L113.735 7.64304C113.789 7.3444 114 7.12054 114.285 7.08002L116.613 6.74911Z" fill="#FFDF80"/>
<path d="M142.71 4.64186C142.687 4.30664 142.951 3.95187 143.287 3.92908L152.577 3.29739C152.96 3.27134 153.27 3.58703 153.293 3.92226L153.394 5.40683C153.417 5.74206 153.152 6.09682 152.769 6.12287L150.566 6.27265C150.231 6.29544 149.915 6.60557 149.941 6.98869L151.937 36.3449C151.963 36.728 151.696 37.0349 151.313 37.061L149.11 37.2107C148.774 37.2335 148.42 36.969 148.394 36.5859L146.398 7.22964C146.372 6.84653 146.065 6.57873 145.682 6.60478L143.527 6.7513C143.143 6.77735 142.833 6.46166 142.81 6.12643L142.71 4.64186Z" fill="#FFDF80"/>
<path d="M172.046 3.21931C172.038 2.88339 172.367 2.53988 172.702 2.53227L174.91 2.48231C175.294 2.47362 175.589 2.80302 175.597 3.13893L176.327 35.3867C176.335 35.7706 176.054 36.065 175.67 36.0737L173.463 36.1237C173.127 36.1313 172.784 35.851 172.776 35.4671L172.457 21.4067C172.45 21.0707 172.154 20.7413 171.77 20.75L169.563 20.8C169.227 20.8076 168.899 21.1511 168.906 21.487L169.225 35.5474C169.233 35.9313 168.952 36.2258 168.568 36.2345L166.409 36.2833C166.025 36.292 165.73 36.0106 165.721 35.6267L164.992 3.37897C164.984 3.04305 165.264 2.70062 165.648 2.69193L167.808 2.64306C168.192 2.63437 168.487 2.96377 168.495 3.29968L168.813 17.3601C168.822 17.744 169.164 18.0243 169.5 18.0167L171.707 17.9667C172.091 17.9581 172.373 17.6636 172.364 17.2797L172.046 3.21931Z" fill="#FFDF80"/>
<path d="M194.21 4.75979C194.203 5.09574 193.909 5.4264 193.525 5.41937L191.318 5.37892C190.982 5.37277 190.641 5.65456 190.633 6.0385L190.428 17.2686C190.421 17.6526 190.751 17.9467 191.087 17.9528L193.295 17.9933C193.679 18.0003 193.962 18.2935 193.955 18.6775L193.928 20.1172C193.921 20.5012 193.628 20.7838 193.244 20.7768L191.036 20.7363C190.7 20.7302 190.358 21.06 190.352 21.3959L190.145 32.674C190.138 33.058 190.469 33.3521 190.805 33.3582L193.013 33.3987C193.397 33.4057 193.679 33.6989 193.672 34.0829L193.646 35.5226C193.639 35.9066 193.346 36.1892 192.962 36.1822L187.251 36.0776C186.867 36.0705 186.584 35.7773 186.591 35.3934L187.182 3.14279C187.188 2.80685 187.482 2.47618 187.866 2.48321L193.577 2.58784C193.961 2.59488 194.243 2.9361 194.237 3.27204L194.21 4.75979Z" fill="#FFDF80"/>
<path d="M215.371 14.1592C215.351 14.4946 215.044 14.8129 214.66 14.7902L212.456 14.6594C212.121 14.6395 211.805 14.2842 211.825 13.9488L212.181 7.9593C212.238 7.00098 211.516 6.18884 210.558 6.13198L210.462 6.12629C209.552 6.07227 208.692 6.79059 208.635 7.7489L208.589 8.51555C208.521 9.66553 208.695 10.7818 209.013 11.9066L213.935 27.8261C214.301 28.9537 214.424 30.1151 214.356 31.2651L214.291 32.3671C214.131 35.0504 211.85 37.0308 209.215 36.8744L208.209 36.8147C205.525 36.6555 203.542 34.4221 203.701 31.7388L204.04 26.0368C204.062 25.6535 204.367 25.3831 204.75 25.4058L206.906 25.5337C207.29 25.5565 207.56 25.861 207.537 26.2444L207.182 32.2338C207.125 33.1922 207.894 34.0071 208.805 34.0612L208.901 34.0668C209.859 34.1237 210.671 33.4025 210.728 32.4442L210.773 31.6776C210.842 30.5276 210.718 29.3663 210.349 28.2865L205.431 12.3191C205.11 11.2422 204.986 10.0809 205.055 8.93091L205.123 7.78093C205.279 5.14557 207.515 3.11446 210.199 3.27367L211.205 3.33338C213.84 3.48975 215.869 5.77391 215.712 8.40927L215.371 14.1592Z" fill="#FFDF80"/>
<path d="M234.374 7.42653C234.341 7.76085 234.021 8.06635 233.639 8.02793L231.442 7.80702C231.107 7.77341 230.744 8.02634 230.706 8.40842L229.582 19.5841C229.544 19.9661 229.849 20.2863 230.183 20.3199L232.38 20.5408C232.762 20.5792 233.02 20.8946 232.982 21.2767L232.838 22.7095C232.799 23.0915 232.484 23.3493 232.102 23.3109L229.905 23.09C229.571 23.0563 229.203 23.357 229.169 23.6914L228.041 34.9148C228.002 35.2968 228.308 35.617 228.642 35.6506L230.839 35.8715C231.221 35.9099 231.479 36.2253 231.44 36.6074L231.296 38.0402C231.258 38.4222 230.942 38.68 230.56 38.6416L224.877 38.0701C224.495 38.0317 224.237 37.7163 224.276 37.3342L227.503 5.24006C227.536 4.90575 227.857 4.60024 228.239 4.63866L233.922 5.21014C234.304 5.24855 234.557 5.61168 234.523 5.946L234.374 7.42653Z" fill="#FFDF80"/>
<path d="M270.042 10.9867C270.139 10.7113 270.472 10.4773 270.803 10.5353L272.978 10.9165C273.356 10.9828 273.582 11.3634 273.524 11.6944L267.956 43.4662C267.89 43.8444 267.556 44.0784 267.178 44.0121L265.476 43.7138C265.098 43.6475 264.864 43.3141 264.93 42.9359L268.36 23.3622L263.03 39.8739C262.925 40.1966 262.6 40.3833 262.269 40.3253L260.236 39.969C259.905 39.911 259.662 39.6249 259.673 39.2856L260.251 22.0871L256.845 41.519C256.779 41.8972 256.445 42.1312 256.067 42.0649L254.365 41.7666C253.987 41.7003 253.753 41.3669 253.819 40.9887L259.387 9.21691C259.445 8.88595 259.787 8.60471 260.165 8.671L262.34 9.05215C262.671 9.11015 262.905 9.44354 262.903 9.73551L262.029 35.0202C262.004 35.1621 262.193 35.1952 262.265 35.0617L270.042 10.9867Z" fill="#FFDF80"/>
<path d="M292.615 15.5992C292.726 15.329 293.06 15.1586 293.34 15.2224L295.026 15.6046C295.447 15.7002 295.679 16.1958 295.5 16.5491L288.751 31.1129C288.63 31.43 288.509 31.747 288.435 32.0747L285.026 47.101C284.941 47.4754 284.597 47.6926 284.222 47.6077L282.069 47.1192C281.741 47.0449 281.477 46.6897 281.562 46.3152L285.088 30.774L285.342 14.2449C285.334 13.8492 285.757 13.5022 286.178 13.5977L287.817 13.9694C288.144 14.0437 288.372 14.3415 288.355 14.633L288.191 24.6858C288.217 24.79 288.357 24.8219 288.379 24.7282L292.615 15.5992Z" fill="#FFDF80"/>
<path d="M307.082 19.2866C307.171 18.9626 307.538 18.715 307.862 18.804L316.841 21.2728C317.211 21.3746 317.4 21.7749 317.311 22.0989L316.916 23.5336C316.827 23.8576 316.46 24.1052 316.09 24.0034L313.961 23.4181C313.637 23.329 313.237 23.5176 313.135 23.8879L305.334 52.259C305.233 52.6293 304.878 52.8306 304.508 52.7288L302.379 52.1434C302.055 52.0544 301.808 51.6876 301.909 51.3173L309.71 22.9462C309.812 22.5759 309.611 22.2219 309.24 22.1201L307.158 21.5474C306.787 21.4456 306.599 21.0453 306.688 20.7213L307.082 19.2866Z" fill="#FFDF80"/>
<path d="M335.245 27.622C335.349 27.3024 335.772 27.0864 336.092 27.19L338.192 27.8711C338.557 27.9896 338.728 28.398 338.624 28.7177L328.674 59.4007C328.556 59.766 328.193 59.9511 327.828 59.8327L325.727 59.1516C325.408 59.0479 325.177 58.6703 325.295 58.3051L329.634 44.9269C329.737 44.6073 329.567 44.1988 329.202 44.0804L327.101 43.3993C326.782 43.2956 326.359 43.5116 326.255 43.8312L321.917 57.2094C321.798 57.5747 321.435 57.7598 321.07 57.6413L319.016 56.9751C318.65 56.8566 318.465 56.4938 318.584 56.1285L328.533 25.4455C328.637 25.1259 329.015 24.8951 329.38 25.0135L331.435 25.6798C331.8 25.7983 331.97 26.2067 331.866 26.5263L327.528 39.9045C327.41 40.2698 327.641 40.6474 327.96 40.751L330.061 41.4321C330.426 41.5506 330.789 41.3654 330.907 41.0002L335.245 27.622Z" fill="#FFDF80"/>
<path d="M356.144 45.5522C356.026 45.8668 355.638 46.0803 355.279 45.9454L353.211 45.17C352.897 45.052 352.7 44.6194 352.818 44.3048L354.925 38.687C355.262 37.7881 354.813 36.7993 353.914 36.4622L353.824 36.4285C352.97 36.1082 351.937 36.5407 351.6 37.4396L351.33 38.1587C350.925 39.2373 350.762 40.3552 350.734 41.5238L350.739 58.1867C350.755 59.3721 350.531 60.5181 350.126 61.5968L349.738 62.6305C348.794 65.1472 346.03 66.3662 343.558 65.439L342.615 65.085C340.098 64.1411 338.862 61.4219 339.806 58.9051L341.812 53.5569C341.947 53.1974 342.318 53.0288 342.677 53.1637L344.7 53.9223C345.059 54.0571 345.228 54.4279 345.093 54.7875L342.986 60.4053C342.649 61.3041 343.143 62.3098 343.997 62.6301L344.087 62.6638C344.986 63.0009 345.974 62.5516 346.311 61.6527L346.581 60.9336C346.986 59.855 347.211 58.7089 347.177 57.5685L347.189 40.8606C347.201 39.737 347.425 38.591 347.83 37.5124L348.234 36.4337C349.162 33.9619 351.898 32.6812 354.414 33.6252L355.358 33.9791C357.83 34.9063 359.094 37.6873 358.167 40.1591L356.144 45.5522Z" fill="#FFDF80"/>
<path d="M49.9791 83.4713C50.3084 84.5752 50.2285 85.6509 49.8638 86.6112C49.7161 86.9558 49.8122 87.2778 50.1108 87.4392C50.942 88.0428 51.6118 88.945 51.9273 90.0029L54.3832 98.2365C55.1515 100.812 53.6853 103.454 51.1554 104.208L46.2337 105.676C45.8657 105.786 45.5074 105.592 45.3976 105.224L36.1779 74.314C36.0819 73.992 36.2618 73.5877 36.6298 73.478L41.5516 72.0099C44.0814 71.2554 46.7687 72.7079 47.5233 75.2377L49.9791 83.4713ZM44.0509 76.023C43.7765 75.103 42.821 74.5866 41.901 74.861L40.7971 75.1903C40.4751 75.2863 40.2355 75.6583 40.3452 76.0263L43.5556 86.7897C43.6654 87.1577 44.0697 87.3376 44.3917 87.2416L45.4956 86.9123C46.4156 86.6379 46.932 85.6825 46.6576 84.7625L44.0509 76.023ZM49.8997 101.678C50.8196 101.403 51.3361 100.448 51.0617 99.5277L48.4549 90.7882C48.1805 89.8682 47.225 89.3518 46.3051 89.6262L45.2012 89.9555C44.8792 90.0515 44.6395 90.4235 44.7493 90.7915L47.9597 101.555C48.0694 101.923 48.4737 102.103 48.7957 102.007L49.8997 101.678Z" fill="#FFDF80"/>
<path d="M64.7233 67.9301C64.806 68.2557 64.6097 68.6523 64.2375 68.7469L62.0976 69.2909C61.7719 69.3737 61.5172 69.7356 61.6118 70.1077L64.379 80.9935C64.4736 81.3657 64.8702 81.5621 65.1958 81.4793L67.3357 80.9353C67.7079 80.8407 68.058 81.0489 68.1526 81.421L68.5073 82.8167C68.6019 83.1888 68.3938 83.5389 68.0216 83.6335L65.8817 84.1775C65.556 84.2602 65.3131 84.6687 65.3959 84.9943L68.1749 95.9266C68.2695 96.2988 68.6661 96.4952 68.9917 96.4124L71.1317 95.8684C71.5038 95.7738 71.8539 95.982 71.9485 96.3542L72.3033 97.7498C72.3979 98.1219 72.1897 98.472 71.8175 98.5666L66.2816 99.9738C65.9094 100.068 65.5593 99.8602 65.4647 99.4881L57.5181 68.2263C57.4354 67.9006 57.6317 67.504 58.0039 67.4094L63.5398 66.0022C63.912 65.9076 64.2739 66.1623 64.3567 66.4879L64.7233 67.9301Z" fill="#FFDF80"/>
<path d="M82.0987 62.4661C82.0293 62.1373 82.2887 61.7392 82.6175 61.6698L84.7779 61.2139C85.1536 61.1346 85.5048 61.4039 85.5742 61.7327L92.2343 93.2936C92.3136 93.6693 92.0913 94.0106 91.7155 94.0898L89.5551 94.5458C89.2264 94.6151 88.8381 94.4027 88.7589 94.027L85.8549 80.266C85.7856 79.9373 85.4344 79.668 85.0587 79.7473L82.8983 80.2032C82.5695 80.2726 82.3101 80.6707 82.3795 80.9995L85.2834 94.7604C85.3627 95.1361 85.1404 95.4774 84.7646 95.5567L82.6512 96.0027C82.2754 96.0819 81.9342 95.8596 81.8549 95.4839L75.1947 63.923C75.1254 63.5942 75.3378 63.206 75.7135 63.1267L77.827 62.6807C78.2027 62.6014 78.5539 62.8707 78.6232 63.1995L81.5271 76.9604C81.6064 77.3361 81.9947 77.5486 82.3234 77.4792L84.4838 77.0233C84.8596 76.944 85.0819 76.6027 85.0026 76.227L82.0987 62.4661Z" fill="#FFDF80"/>
<path d="M96.8702 59.6264C96.8133 59.2953 97.0402 58.9153 97.4186 58.8503L99.5474 58.4843C99.9258 58.4192 100.267 58.7016 100.324 59.0327L105.789 90.8223C105.854 91.2008 105.619 91.5334 105.24 91.5985L103.112 91.9645C102.733 92.0295 102.401 91.7945 102.336 91.416L96.8702 59.6264Z" fill="#FFDF80"/>
<path d="M119.529 56.1718C119.485 55.8388 119.726 55.4676 120.106 55.4169L121.819 55.1885C122.2 55.1378 122.53 55.4328 122.574 55.7658L126.837 87.7389C126.888 88.1195 126.64 88.4431 126.26 88.4938L123.976 88.7983C123.643 88.8427 123.373 88.6365 123.24 88.3637L116.237 67.0705C116.23 67.0229 116.183 67.0293 116.189 67.0769L119.082 88.7729C119.132 89.1535 118.837 89.4834 118.504 89.5278L116.791 89.7562C116.411 89.8069 116.087 89.5595 116.037 89.1789L111.774 57.2058C111.729 56.8727 111.97 56.5016 112.351 56.4509L114.492 56.1654C114.825 56.121 115.142 56.3208 115.234 56.6476L122.409 78.499C122.463 78.5403 122.511 78.5339 122.504 78.4864L119.529 56.1718Z" fill="#FFDF80"/>
<path d="M133.928 54.5059C133.898 54.1712 134.156 53.8113 134.539 53.7778L139.655 53.3301C142.285 53.1 144.625 55.0635 144.855 57.6934L146.947 81.6021C147.182 84.2798 145.214 86.5721 142.584 86.8022L137.468 87.2499C137.085 87.2834 136.773 87.0216 136.74 86.6391L133.928 54.5059ZM141.863 84.0707C142.82 83.987 143.518 83.1549 143.434 82.1986L141.296 57.764C141.212 56.8076 140.38 56.1095 139.424 56.1932L138.276 56.2936C137.941 56.3229 137.632 56.6391 137.665 57.0216L139.988 83.5602C140.021 83.9428 140.381 84.2004 140.716 84.1711L141.863 84.0707Z" fill="#FFDF80"/>
<path d="M178.957 53.057L182.098 84.315C182.151 84.6984 181.819 85.0387 181.435 85.0437L179.563 85.0679C179.179 85.0728 178.888 84.8366 178.884 84.5006L177.842 74.4812C177.838 74.1453 177.547 73.909 177.163 73.914L175.051 73.9413C174.715 73.9456 174.43 74.1893 174.386 74.5259L173.652 84.5683C173.609 84.9049 173.324 85.1486 172.988 85.1529L171.116 85.1771C170.684 85.1827 170.392 84.8505 170.435 84.4659L172.766 53.1371C172.803 52.2726 173.561 51.5427 174.425 51.5315L177.209 51.4955C178.073 51.4843 178.85 52.1943 178.957 53.057ZM176.79 71.0866C177.174 71.0816 177.458 70.7419 177.453 70.3579L176.136 57.6059C176.136 57.6059 176.131 57.2219 175.891 57.225C175.699 57.2275 175.656 57.6121 175.656 57.6121L174.717 70.3933C174.674 70.7779 174.966 71.1102 175.398 71.1046L176.79 71.0866Z" fill="#FFDF80"/>
<path d="M203.545 65.2956C203.506 66.447 203.089 67.4416 202.438 68.2363C202.188 68.5161 202.177 68.852 202.409 69.0998C203.005 69.9362 203.354 71.0045 203.317 72.1078L203.03 80.6951C202.94 83.3816 200.711 85.4202 198.072 85.3321L192.939 85.1605C192.555 85.1477 192.277 84.8502 192.29 84.4665L193.367 52.2284C193.379 51.8926 193.678 51.5664 194.061 51.5793L199.195 51.7508C201.833 51.839 203.92 54.0699 203.832 56.7084L203.545 65.2956ZM200.29 56.3499C200.322 55.3905 199.58 54.5973 198.62 54.5652L197.469 54.5267C197.133 54.5155 196.788 54.7921 196.775 55.1759L196.4 66.4016C196.387 66.7854 196.713 67.0845 197.049 67.0957L198.2 67.1342C199.16 67.1662 199.953 66.4243 199.985 65.4649L200.29 56.3499ZM197.686 82.5336C198.645 82.5656 199.438 81.8237 199.47 80.8643L199.775 71.7493C199.807 70.7899 199.065 69.9967 198.106 69.9646L196.954 69.9261C196.618 69.9149 196.273 70.1915 196.26 70.5753L195.885 81.801C195.872 82.1848 196.198 82.4839 196.534 82.4951L197.686 82.5336Z" fill="#FFDF80"/>
<path d="M215.339 57.3406C215.546 54.7087 217.821 52.7214 220.501 52.9326L221.506 53.0118C224.138 53.2193 226.121 55.5423 225.914 58.1742L224.028 82.1C223.816 84.7797 221.497 86.7154 218.865 86.5079L217.86 86.4287C215.181 86.2175 213.241 83.946 213.453 81.2664L215.339 57.3406ZM218.606 83.6948C219.563 83.7703 220.389 83.065 220.464 82.1079L222.392 57.6558C222.467 56.6988 221.762 55.8728 220.805 55.7973L220.709 55.7898C219.752 55.7144 218.926 56.4196 218.851 57.3767L216.923 81.8288C216.848 82.7859 217.553 83.6118 218.51 83.6873L218.606 83.6948Z" fill="#FFDF80"/>
<path d="M246.845 69.1635C246.679 70.4972 246.006 71.6228 245.042 72.3733C245.793 73.3375 246.168 74.5936 246.002 75.9273L244.43 88.5497C244.382 88.9308 244.061 89.181 243.68 89.1335L241.489 88.8606C241.156 88.819 240.858 88.4917 240.905 88.1107L242.513 75.2024C242.632 74.2498 241.965 73.3927 241.012 73.2741L239.869 73.1317C239.535 73.0902 239.16 73.382 239.119 73.7155L237.38 87.6716C237.333 88.0527 237.012 88.3029 236.631 88.2554L234.487 87.9884C234.106 87.9409 233.856 87.6196 233.903 87.2385L237.89 55.2299C237.932 54.8964 238.259 54.5986 238.64 54.6461L243.737 55.2809C246.357 55.6072 248.233 58.0177 247.907 60.6374L246.845 69.1635ZM240.213 70.369L241.356 70.5114C242.309 70.6301 243.166 69.9629 243.284 69.0103L244.412 59.9602C244.53 59.0076 243.863 58.1505 242.91 58.0319L241.767 57.8895C241.434 57.8479 241.065 58.0922 241.017 58.4733L239.629 69.6191C239.582 70.0002 239.879 70.3275 240.213 70.369Z" fill="#FFDF80"/>
<path d="M260.004 58.2379C260.061 57.9067 260.402 57.624 260.733 57.6806L269.912 59.2485C270.29 59.3131 270.518 59.6928 270.461 60.024L270.211 61.4908C270.154 61.822 269.813 62.1047 269.435 62.04L267.258 61.6683C266.927 61.6117 266.548 61.839 266.483 62.2175L261.529 91.2214C261.464 91.6 261.132 91.8354 260.753 91.7707L258.577 91.3989C258.245 91.3424 257.963 91.0019 258.027 90.6234L262.982 61.6195C263.046 61.2409 262.811 60.9086 262.432 60.8439L260.303 60.4802C259.925 60.4156 259.697 60.0359 259.754 59.7047L260.004 58.2379Z" fill="#FFDF80"/>
<path d="M281.739 62.2259C281.808 61.8971 282.159 61.6274 282.535 61.7063L284.649 62.15C285.024 62.2289 285.237 62.6169 285.168 62.9457L278.542 94.5138C278.463 94.8896 278.122 95.1123 277.746 95.0335L275.632 94.5897C275.257 94.5109 275.034 94.1698 275.113 93.794L281.739 62.2259Z" fill="#FFDF80"/>
<path d="M295.487 69.4691C296.126 66.9077 298.699 65.3235 301.307 65.9745L302.285 66.2186C304.846 66.8579 306.419 69.4768 305.779 72.0382L299.967 95.3237C299.316 97.9317 296.709 99.4577 294.147 98.8184L293.169 98.5742C290.561 97.9233 289.024 95.3627 289.675 92.7547L295.487 69.4691ZM294.356 96.001C295.287 96.2335 296.218 95.6743 296.451 94.7429L302.391 70.9451C302.624 70.0137 302.064 69.0825 301.133 68.85L301.04 68.8268C300.108 68.5943 299.177 69.1534 298.945 70.0849L293.005 93.8827C292.772 94.8141 293.331 95.7453 294.263 95.9777L294.356 96.001Z" fill="#FFDF80"/>
<path d="M325.575 73.3489C325.671 73.027 326.043 72.7873 326.411 72.897L328.067 73.391C328.435 73.5007 328.615 73.905 328.519 74.227L319.3 105.137C319.19 105.505 318.832 105.699 318.464 105.589L316.256 104.931C315.934 104.835 315.772 104.536 315.763 104.233L318.104 81.9399C318.118 81.8939 318.072 81.8801 318.058 81.9261L311.802 102.901C311.692 103.269 311.288 103.449 310.966 103.353L309.31 102.859C308.942 102.749 308.748 102.391 308.858 102.023L318.078 71.1126C318.174 70.7906 318.546 70.551 318.914 70.6607L320.984 71.2781C321.306 71.3742 321.513 71.6865 321.463 72.0222L319.049 94.8943C319.081 94.954 319.127 94.9678 319.141 94.9218L325.575 73.3489Z" fill="#FFDF80"/>
</svg>
