<svg width="1291" height="220" viewBox="0 0 1291 220" fill="none" xmlns="http://www.w3.org/2000/svg">
<path d="M6.83791 139.942C6.57224 139.325 6.83566 138.48 7.54109 138.177L16.9763 134.116C21.8262 132.028 27.5021 134.289 29.5895 139.138L48.5655 183.228C50.6908 188.166 48.3926 193.754 43.5427 195.841L34.1075 199.902C33.402 200.206 32.6453 199.905 32.3416 199.199L6.83791 139.942ZM40.4597 191.107C42.2233 190.348 43.0269 188.329 42.2679 186.566L22.8744 141.506C22.1154 139.742 20.0973 138.939 18.3337 139.698L16.2174 140.609C15.6001 140.874 15.2106 141.669 15.5142 142.375L36.5775 191.314C36.8812 192.02 37.7261 192.283 38.3434 192.017L40.4597 191.107Z" fill="#F3D58C"/>
<path d="M55.3023 122.871C55.5548 123.494 55.2736 124.333 54.5619 124.622L50.4695 126.281C49.8467 126.534 49.4404 127.32 49.729 128.032L58.1703 148.85C58.4589 149.561 59.2981 149.843 59.9209 149.59L64.0132 147.931C64.725 147.642 65.4752 147.959 65.7638 148.671L66.846 151.34C67.1346 152.052 66.8173 152.802 66.1055 153.091L62.0132 154.75C61.3904 155.002 61.0202 155.878 61.2727 156.501L69.7501 177.407C70.0387 178.119 70.8779 178.4 71.5006 178.148L75.593 176.488C76.3047 176.2 77.0549 176.517 77.3435 177.229L78.4258 179.898C78.7143 180.609 78.397 181.36 77.6853 181.648L67.0985 185.941C66.3868 186.23 65.6366 185.912 65.348 185.2L41.1063 125.416C40.8537 124.794 41.135 123.954 41.8467 123.666L52.4335 119.373C53.1452 119.084 53.9315 119.491 54.184 120.114L55.3023 122.871Z" fill="#F3D58C"/>
<path d="M96.0275 125.108C96.2668 125.736 95.9678 126.569 95.2501 126.842L91.1235 128.415C90.4955 128.654 89.6283 128.265 89.389 127.637L85.1166 116.424C84.433 114.629 82.4508 113.741 80.6566 114.425L80.4772 114.493C78.7727 115.142 77.7945 117.159 78.4781 118.953L79.025 120.388C79.8453 122.541 81.08 124.434 82.5838 126.224L104.637 151.209C106.23 152.965 107.409 154.981 108.23 157.134L109.016 159.197C110.93 164.221 108.397 169.706 103.463 171.586L101.579 172.304C96.5553 174.218 91.1042 171.775 89.1901 166.751L85.1227 156.076C84.8493 155.358 85.1825 154.615 85.9001 154.341L89.937 152.803C90.6547 152.53 91.3981 152.863 91.6715 153.581L95.944 164.794C96.6276 166.588 98.6995 167.443 100.404 166.793L100.583 166.725C102.378 166.041 103.266 164.059 102.582 162.265L102.036 160.83C101.215 158.677 100.036 156.66 98.4768 154.994L76.3896 129.919C74.92 128.219 73.7408 126.203 72.9205 124.05L72.1002 121.897C70.2203 116.963 72.6294 111.422 77.6532 109.508L79.5371 108.79C84.4711 106.91 90.0461 109.409 91.926 114.343L96.0275 125.108Z" fill="#F3D58C"/>
<path d="M124.576 93.6346C124.476 93.0593 124.829 92.3249 125.463 92.1021L129.629 90.6381C130.353 90.3834 131.12 90.8265 131.342 91.4605L152.73 152.324C152.985 153.048 152.633 153.783 151.908 154.037L148.647 155.183C147.923 155.438 147.188 155.085 146.934 154.361L133.757 116.865L140.623 150.88C140.755 151.546 140.371 152.19 139.737 152.413L135.842 153.781C135.208 154.004 134.506 153.742 134.193 153.14L118.365 122.579L131.446 159.803C131.701 160.528 131.348 161.262 130.624 161.517L127.363 162.663C126.639 162.917 125.904 162.565 125.65 161.84L104.262 100.977C104.039 100.343 104.36 99.5179 105.084 99.2633L109.25 97.7992C109.884 97.5764 110.619 97.9289 110.9 98.4405L134.126 143.395C134.221 143.667 134.584 143.539 134.579 143.236L124.576 93.6346Z" fill="#F3D58C"/>
<path d="M147.036 86.2517C146.827 85.6131 147.166 84.7952 147.895 84.5563L152.001 83.2121C152.731 82.9731 153.487 83.4326 153.696 84.0712L173.769 145.381C174.008 146.111 173.64 146.837 172.91 147.076L168.805 148.421C168.075 148.659 167.348 148.291 167.109 147.561L147.036 86.2517Z" fill="#F3D58C"/>
<path d="M183.247 77.8798C183.445 78.5219 183.093 79.334 182.36 79.5608L178.14 80.8648C177.498 81.0633 177.026 81.812 177.253 82.5458L183.887 104.008C184.114 104.742 184.926 105.094 185.568 104.895L189.787 103.591C190.521 103.364 191.241 103.745 191.468 104.478L192.318 107.23C192.545 107.964 192.165 108.684 191.431 108.911L187.212 110.215C186.57 110.413 186.126 111.254 186.325 111.896L192.987 133.45C193.214 134.184 194.026 134.535 194.668 134.337L198.887 133.033C199.621 132.806 200.341 133.186 200.568 133.92L201.418 136.672C201.645 137.405 201.265 138.126 200.531 138.353L189.616 141.726C188.883 141.953 188.162 141.573 187.935 140.839L168.885 79.2038C168.687 78.5618 169.039 77.7496 169.772 77.5229L180.687 74.1494C181.421 73.9226 182.169 74.3945 182.368 75.0366L183.247 77.8798Z" fill="#F3D58C"/>
<path d="M212.86 66.098C212.675 65.4519 213.044 64.6475 213.783 64.4366L217.106 63.4874C217.844 63.2764 218.583 63.7644 218.767 64.4105L236.486 126.441C236.697 127.18 236.302 127.892 235.563 128.103L231.132 129.369C230.486 129.553 229.893 129.223 229.55 128.722L209.509 88.6206C209.482 88.5283 209.39 88.5546 209.416 88.6469L221.44 130.739C221.651 131.478 221.163 132.216 220.517 132.401L217.194 133.35C216.455 133.561 215.743 133.165 215.532 132.427L197.813 70.396C197.629 69.7498 197.998 68.9454 198.737 68.7345L202.89 67.548C203.537 67.3634 204.222 67.6667 204.499 68.2865L225.041 109.443C225.16 109.509 225.252 109.483 225.226 109.39L212.86 66.098Z" fill="#F3D58C"/>
<path d="M234.762 60.046C234.592 59.3956 234.981 58.6002 235.631 58.4311L253.656 53.7436C254.399 53.5503 255.125 54.0557 255.295 54.7061L256.044 57.5863C256.213 58.2366 255.824 59.032 255.081 59.2253L250.807 60.3368C250.157 60.5059 249.652 61.2325 249.845 61.9758L264.656 118.929C264.85 119.673 264.437 120.375 263.694 120.568L259.42 121.68C258.77 121.849 257.974 121.461 257.781 120.717L242.97 63.7638C242.776 63.0205 242.074 62.608 241.331 62.8013L237.15 63.8886C236.406 64.0819 235.68 63.5765 235.511 62.9261L234.762 60.046Z" fill="#F3D58C"/>
<path d="M288.793 48.5105L308.408 108.201C308.677 108.927 308.176 109.735 307.428 109.91L303.783 110.764C303.035 110.94 302.365 110.604 302.212 109.95L295.856 90.8317C295.703 90.1774 295.032 89.8416 294.284 90.0169L290.172 90.981C289.518 91.1344 289.067 91.7332 289.126 92.4094L292.024 112.338C292.084 113.014 291.633 113.613 290.978 113.767L287.333 114.621C286.492 114.818 285.778 114.296 285.696 113.526L276.736 51.3373C276.435 49.633 277.602 47.8804 279.284 47.486L284.705 46.215C286.388 45.8206 288.212 46.872 288.793 48.5105ZM292.337 84.6558C293.085 84.4805 293.493 83.6948 293.317 82.947L285.245 58.6111C285.245 58.6111 285.07 57.8633 284.603 57.9729C284.229 58.0606 284.311 58.8302 284.311 58.8302L287.99 84.1961C288.072 84.9657 288.786 85.4885 289.627 85.2913L292.337 84.6558Z" fill="#F3D58C"/>
<path d="M345.012 37.7963C345.142 38.4556 344.707 39.2264 343.954 39.375L339.621 40.2295C338.962 40.3596 338.414 41.0547 338.563 41.8082L342.909 63.8476C343.058 64.6011 343.829 65.0362 344.488 64.9061L348.821 64.0516C349.574 63.903 350.251 64.3567 350.399 65.1101L350.957 67.9357C351.105 68.6892 350.652 69.3658 349.898 69.5144L345.566 70.3689C344.906 70.4989 344.377 71.2883 344.507 71.9476L348.873 94.0812C349.021 94.8346 349.792 95.2697 350.451 95.1397L354.784 94.2852C355.537 94.1366 356.214 94.5902 356.362 95.3437L356.92 98.1693C357.068 98.9227 356.615 99.5993 355.861 99.7479L344.653 101.959C343.9 102.107 343.223 101.653 343.074 100.9L330.591 37.6073C330.461 36.948 330.896 36.1773 331.65 36.0287L342.858 33.8181C343.611 33.6694 344.306 34.2173 344.436 34.8766L345.012 37.7963Z" fill="#F3D58C"/>
<path d="M384.577 47.7033C384.693 48.3652 384.242 49.1265 383.485 49.2591L379.136 50.0216C378.474 50.1376 377.696 49.5918 377.58 48.9299L375.508 37.1101C375.176 35.2189 373.398 33.9712 371.507 34.3027L371.318 34.3359C369.521 34.6508 368.179 36.4455 368.511 38.3367L368.776 39.8496C369.174 42.119 370.028 44.211 371.165 46.2532L388.089 74.9624C389.321 76.9881 390.097 79.1911 390.495 81.4605L390.876 83.6354C391.804 88.9306 388.278 93.8371 383.078 94.7488L381.092 95.0968C375.797 96.0251 370.907 92.5938 369.979 87.2986L368.006 76.0462C367.874 75.2897 368.341 74.6229 369.098 74.4903L373.353 73.7444C374.109 73.6118 374.776 74.0797 374.909 74.8361L376.981 86.6559C377.312 88.5471 379.185 89.7782 380.982 89.4633L381.171 89.4301C383.062 89.0986 384.31 87.3205 383.978 85.4293L383.713 83.9164C383.315 81.647 382.539 79.4439 381.323 77.5128L364.384 48.7091C363.262 46.7614 362.486 44.5583 362.089 42.2889L361.691 40.0195C360.779 34.8188 364.194 29.8343 369.489 28.9061L371.475 28.558C376.675 27.6464 381.677 31.1556 382.588 36.3563L384.577 47.7033Z" fill="#F3D58C"/>
<path d="M397.088 25.6231C396.987 24.9586 397.457 24.2081 398.121 24.1076L416.536 21.3236C417.295 21.2088 417.965 21.7872 418.066 22.4516L418.51 25.3942C418.611 26.0586 418.142 26.8092 417.382 26.924L413.016 27.5841C412.352 27.6846 411.773 28.3545 411.888 29.1139L420.685 87.3007C420.8 88.0601 420.316 88.7157 419.557 88.8305L415.191 89.4906C414.526 89.5911 413.776 89.122 413.661 88.3626L404.864 30.1758C404.749 29.4165 404.093 28.933 403.334 29.0478L399.063 29.6936C398.303 29.8084 397.633 29.2301 397.533 28.5656L397.088 25.6231Z" fill="#F3D58C"/>
<path d="M435.09 28.4148C434.423 23.177 438.068 18.3584 443.401 17.6798L445.401 17.4254C450.639 16.7589 455.469 20.4991 456.136 25.7368L462.195 73.3529C462.873 78.6859 459.121 83.4214 453.883 84.0879L451.883 84.3424C446.55 85.0209 441.827 81.3639 441.148 76.0309L435.09 28.4148ZM452.228 78.6856C454.133 78.4432 455.463 76.7257 455.22 74.821L449.028 26.1574C448.786 24.2527 447.068 22.9229 445.164 23.1652L444.973 23.1895C443.068 23.4318 441.739 25.1494 441.981 27.0541L448.173 75.7177C448.415 77.6223 450.133 78.9522 452.038 78.7098L452.228 78.6856Z" fill="#F3D58C"/>
<path d="M494.262 33.1839C494.331 33.8524 493.827 34.5801 493.063 34.6591L488.671 35.1135C488.002 35.1826 487.265 34.5833 487.196 33.9149L485.961 21.9786C485.763 20.0688 484.077 18.699 482.168 18.8965L481.977 18.9163C480.162 19.1039 478.697 20.7997 478.895 22.7095L479.053 24.2374C479.29 26.5291 479.994 28.676 480.985 30.7933L495.846 60.6226C496.932 62.73 497.551 64.9823 497.788 67.274L498.015 69.4703C498.569 74.8178 494.706 79.4639 489.454 80.0071L487.449 80.2146C482.101 80.7677 477.465 77.0008 476.912 71.6533L475.737 60.2899C475.658 59.526 476.171 58.8938 476.935 58.8148L481.232 58.3703C481.996 58.2912 482.628 58.8049 482.707 59.5688L483.942 71.5052C484.14 73.415 485.921 74.7749 487.735 74.5872L487.926 74.5675C489.836 74.3699 491.206 72.684 491.008 70.7742L490.85 69.2464C490.613 66.9546 489.994 64.7023 488.918 62.6904L474.048 32.7656C473.066 30.7439 472.447 28.4916 472.21 26.1998L471.973 23.9081C471.43 18.6561 475.187 13.9244 480.534 13.3712L482.54 13.1638C487.792 12.6205 492.533 16.4731 493.077 21.7251L494.262 33.1839Z" fill="#F3D58C"/>
<path d="M551.708 8.70907C551.768 8.12815 552.306 7.51688 552.977 7.47438L557.384 7.19512C558.15 7.14655 558.768 7.78079 558.81 8.45144L562.89 72.8343C562.938 73.6008 562.4 74.2121 561.634 74.2606L558.185 74.4792C557.418 74.5277 556.807 73.9893 556.758 73.2229L554.245 33.5584L551.628 68.1612C551.575 68.8379 551.03 69.3534 550.359 69.3958L546.24 69.6569C545.569 69.6994 544.964 69.2568 544.825 68.5922L537.88 34.8839L540.375 74.261C540.424 75.0274 539.885 75.6387 539.119 75.6873L535.67 75.9058C534.903 75.9544 534.292 75.416 534.243 74.6495L530.164 10.2666C530.121 9.59598 530.654 8.8889 531.42 8.84033L535.827 8.56107C536.498 8.51857 537.109 9.057 537.241 9.62577L547.404 59.1943C547.423 59.4817 547.806 59.4574 547.883 59.1639L551.708 8.70907Z" fill="#F3D58C"/>
<path d="M575.329 7.69415C575.301 7.02274 575.848 6.32728 576.615 6.29522L580.932 6.1149C581.699 6.08285 582.303 6.73022 582.331 7.40163L585.023 71.8574C585.055 72.6247 584.504 73.2243 583.737 73.2563L579.42 73.4367C578.653 73.4687 578.054 72.9173 578.021 72.1499L575.329 7.69415Z" fill="#F3D58C"/>
<path d="M598.401 6.81259C598.386 6.14077 598.946 5.45579 599.618 5.44045L618.237 5.01524C619.005 4.9977 619.596 5.65638 619.612 6.3282L619.68 9.30343C619.695 9.97526 619.134 10.6602 618.367 10.6778L613.952 10.7786C613.28 10.7939 612.621 11.3851 612.639 12.1529L613.982 70.9856C614 71.7534 613.437 72.3424 612.669 72.3599L608.255 72.4607C607.583 72.4761 606.898 71.9156 606.88 71.1478L605.537 12.3151C605.519 11.5473 604.93 10.9846 604.162 11.0021L599.843 11.1008C599.076 11.1183 598.484 10.4596 598.469 9.78782L598.401 6.81259Z" fill="#F3D58C"/>
<path d="M635.742 14.4031C635.745 9.12313 639.972 4.80588 645.348 4.80939L647.364 4.8107C652.644 4.81415 656.961 9.13697 656.958 14.417L656.926 62.417C656.923 67.793 652.6 72.0141 647.32 72.0107L645.304 72.0094C639.928 72.0059 635.707 67.7791 635.71 62.4031L635.742 14.4031ZM646.364 66.4421C648.284 66.4433 649.821 64.9083 649.822 62.9883L649.854 13.9323C649.855 12.0123 648.32 10.4753 646.4 10.4741L646.208 10.474C644.288 10.4727 642.751 12.0077 642.75 13.9277L642.718 62.9837C642.717 64.9037 644.252 66.4407 646.172 66.4419L646.364 66.4421Z" fill="#F3D58C"/>
<path d="M693.831 26.6409C693.814 27.3127 693.222 27.9707 692.454 27.9521L688.04 27.8455C687.368 27.8293 686.712 27.1413 686.729 26.4695L687.018 14.473C687.065 12.5535 685.566 10.9809 683.647 10.9346L683.455 10.9299C681.631 10.8859 679.963 12.3821 679.916 14.3015L679.879 15.8371C679.824 18.1404 680.25 20.3593 680.965 22.5852L691.92 54.0588C692.731 56.287 693.059 58.5996 693.003 60.903L692.95 63.1103C692.82 68.4848 688.4 72.6033 683.121 72.4758L681.106 72.4272C675.731 72.2974 671.61 67.9727 671.74 62.5983L672.016 51.1776C672.034 50.4098 672.624 49.8479 673.392 49.8664L677.711 49.9707C678.479 49.9892 679.04 50.579 679.022 51.3467L678.732 63.3432C678.686 65.2627 680.28 66.8376 682.104 66.8816L682.296 66.8863C684.215 66.9326 685.788 65.4341 685.834 63.5147L685.871 61.9791C685.927 59.6758 685.599 57.3632 684.786 55.231L673.833 23.6614C673.116 21.5315 672.788 19.2189 672.843 16.9156L672.899 14.6122C673.026 9.33378 677.353 5.11698 682.728 5.24674L684.743 5.29539C690.022 5.42283 694.236 9.84584 694.109 15.1243L693.831 26.6409Z" fill="#F3D58C"/>
<path d="M732.198 8.48741C732.239 7.81667 732.855 7.18123 733.622 7.2283L743.874 7.85782C749.144 8.1814 753.192 12.758 752.868 18.0281L749.926 65.9379C749.597 71.3038 745.026 75.2551 739.756 74.9315L729.503 74.302C728.737 74.2549 728.197 73.6447 728.244 72.8781L732.198 8.48741ZM739.139 69.3151C741.056 69.4328 742.683 67.9938 742.8 66.0774L745.807 17.1136C745.924 15.1973 744.486 13.57 742.569 13.4523L740.269 13.3111C739.599 13.27 738.893 13.8037 738.846 14.5702L735.58 67.7501C735.533 68.5167 736.169 69.1328 736.839 69.1739L739.139 69.3151Z" fill="#F3D58C"/>
<path d="M783.153 15.102C783.098 15.7717 782.469 16.394 781.703 16.3307L777.302 15.9666C776.633 15.9112 775.915 16.4299 775.852 17.1953L774 39.5828C773.937 40.3482 774.559 40.9776 775.229 41.033L779.63 41.3971C780.395 41.4604 780.922 42.0819 780.859 42.8473L780.621 45.7175C780.558 46.4829 779.936 47.0094 779.171 46.9461L774.77 46.5821C774.1 46.5267 773.375 47.141 773.32 47.8107L771.46 70.2939C771.397 71.0593 772.019 71.6888 772.689 71.7442L777.09 72.1082C777.855 72.1715 778.382 72.793 778.318 73.5584L778.081 76.4286C778.018 77.194 777.396 77.7205 776.631 77.6572L765.246 76.7155C764.48 76.6522 763.954 76.0307 764.017 75.2653L769.335 10.9729C769.39 10.3032 770.02 9.68092 770.785 9.74422L782.17 10.6859C782.935 10.7492 783.454 11.4664 783.399 12.1361L783.153 15.102Z" fill="#F3D58C"/>
<path d="M799.441 13.5943C799.511 12.9259 800.153 12.3172 800.822 12.3867L819.346 14.3151C820.11 14.3946 820.613 15.1227 820.543 15.791L820.235 18.7511C820.166 19.4194 819.523 20.0282 818.759 19.9487L814.367 19.4914C813.699 19.4218 812.971 19.9252 812.891 20.689L806.798 79.2207C806.718 79.9846 806.086 80.4979 805.322 80.4184L800.93 79.9611C800.261 79.8915 799.652 79.2491 799.732 78.4852L805.825 19.9535C805.905 19.1896 805.391 18.5571 804.628 18.4775L800.331 18.0302C799.567 17.9507 799.064 17.2227 799.133 16.5543L799.441 13.5943Z" fill="#F3D58C"/>
<path d="M854.389 45.574C854.048 48.2403 852.696 50.4869 850.763 51.9817C852.258 53.915 853.001 56.4296 852.66 59.0959L849.432 84.3303C849.335 85.0921 848.69 85.5904 847.929 85.4929L843.548 84.9327C842.882 84.8474 842.288 84.1908 842.386 83.429L845.686 57.6232C845.93 55.7187 844.601 54.0003 842.697 53.7567L840.411 53.4644C839.745 53.3791 838.993 53.9604 838.908 54.627L835.339 82.5277C835.242 83.2895 834.597 83.7878 833.835 83.6903L829.55 83.1423C828.789 83.0448 828.29 82.4004 828.388 81.6386L836.572 17.6479C836.658 16.9813 837.314 16.3878 838.076 16.4853L848.265 17.7885C853.502 18.4584 857.239 23.2915 856.57 28.5289L854.389 45.574ZM841.118 47.9414L843.403 48.2337C845.308 48.4773 847.026 47.1486 847.27 45.2441L849.584 27.1515C849.827 25.247 848.499 23.5285 846.594 23.2849L844.309 22.9926C843.642 22.9074 842.903 23.3935 842.805 24.1552L839.955 46.4377C839.858 47.1995 840.451 47.8561 841.118 47.9414Z" fill="#F3D58C"/>
<path d="M891.013 27.0663L886.985 89.7678C886.964 90.5415 886.199 91.1045 885.44 90.9887L881.738 90.4242C880.979 90.3084 880.482 89.747 880.583 89.0827L881.805 68.9731C881.907 68.3088 881.41 67.7474 880.651 67.6316L876.475 66.9947C875.811 66.8934 875.169 67.2811 874.972 67.9309L870.239 87.505C870.043 88.1549 869.401 88.5425 868.737 88.4412L865.036 87.8767C864.181 87.7464 863.713 86.9953 863.924 86.2505L878.771 25.1991C879.126 23.5053 880.862 22.3134 882.57 22.5739L888.074 23.4134C889.783 23.674 891.084 25.3291 891.013 27.0663ZM880.84 61.931C881.599 62.0468 882.27 61.4693 882.386 60.7101L883.958 35.1187C883.958 35.1187 884.074 34.3594 883.6 34.2871C883.22 34.2292 883.009 34.9739 883.009 34.9739L876.977 59.8851C876.766 60.6298 877.234 61.381 878.088 61.5113L880.84 61.931Z" fill="#F3D58C"/>
<path d="M929.981 51.8887C929.864 52.5504 929.179 53.1115 928.423 52.9774L924.075 52.2065C923.413 52.0891 922.869 51.3101 922.986 50.6485L925.081 38.8328C925.417 36.9422 924.172 35.1617 922.282 34.8265L922.093 34.7929C920.297 34.4745 918.422 35.702 918.087 37.5925L917.818 39.1049C917.416 41.3735 917.503 43.6314 917.874 45.9396L923.959 78.7052C924.424 81.0301 924.4 83.3658 923.998 85.6344L923.612 87.8085C922.674 93.1019 917.683 96.5068 912.484 95.5849L910.499 95.233C905.205 94.2944 901.783 89.3978 902.722 84.1044L904.717 72.8558C904.851 72.0996 905.518 71.633 906.275 71.7671L910.528 72.5213C911.284 72.6554 911.751 73.3231 911.617 74.0793L909.522 85.895C909.187 87.7855 910.525 89.5829 912.321 89.9013L912.51 89.9349C914.401 90.2701 916.182 89.0258 916.517 87.1353L916.785 85.6229C917.187 83.3543 917.211 81.0186 916.729 78.7882L910.661 45.9281C910.274 43.7145 910.298 41.3788 910.7 39.1102L911.102 36.8416C912.024 31.6427 916.938 28.1265 922.231 29.0651L924.216 29.417C929.415 30.3389 932.914 35.3468 931.993 40.5457L929.981 51.8887Z" fill="#F3D58C"/>
<path d="M970.647 39.7275C970.789 39.0706 971.494 38.5353 972.244 38.6974L982.285 40.8656C987.446 41.9801 990.757 47.1146 989.642 52.2756L979.511 99.1942C978.376 104.449 973.262 107.666 968.101 106.552L958.06 104.383C957.31 104.221 956.868 103.537 957.03 102.786L970.647 39.7275ZM968.338 100.906C970.214 101.312 972.04 100.134 972.445 98.2577L982.8 50.307C983.205 48.4302 982.028 46.6046 980.151 46.1994L977.899 45.713C977.242 45.5712 976.464 45.9924 976.302 46.7431L965.056 98.8227C964.893 99.5734 965.429 100.278 966.086 100.42L968.338 100.906Z" fill="#F3D58C"/>
<path d="M1020.02 53.9494C1019.87 54.6031 1019.15 55.1233 1018.4 54.9453L1014.11 53.9219C1013.45 53.7662 1012.67 54.1708 1012.49 54.9179L1007.28 76.7703C1007.11 77.5174 1007.63 78.2334 1008.28 78.3892L1012.57 79.4126C1013.32 79.5906 1013.75 80.2844 1013.57 81.0315L1012.9 83.8331C1012.73 84.5801 1012.03 85.007 1011.28 84.829L1006.99 83.8056C1006.34 83.6498 1005.53 84.1478 1005.37 84.8015L1000.14 106.747C999.964 107.494 1000.48 108.21 1001.14 108.366L1005.43 109.39C1006.18 109.568 1006.61 110.261 1006.43 111.009L1005.76 113.81C1005.58 114.557 1004.89 114.984 1004.14 114.806L993.03 112.159C992.283 111.981 991.856 111.287 992.034 110.54L1006.98 47.784C1007.14 47.1303 1007.86 46.61 1008.6 46.788L1019.72 49.4355C1020.46 49.6135 1020.87 50.4007 1020.71 51.0544L1020.02 53.9494Z" fill="#F3D58C"/>
<path d="M1028.26 113.725C1028.07 114.468 1028.58 115.194 1029.23 115.362L1033.5 116.467C1034.25 116.659 1034.66 117.36 1034.47 118.104L1033.75 120.892C1033.56 121.636 1032.85 122.05 1032.11 121.858L1021.05 119C1020.31 118.808 1019.89 118.106 1020.08 117.363L1036.22 54.9012C1036.39 54.2506 1037.11 53.744 1037.86 53.9361L1042.04 55.0166C1042.78 55.2086 1043.17 56.0034 1043 56.654L1028.26 113.725Z" fill="#F3D58C"/>
<path d="M1103.06 75.3144L1090.51 136.878C1090.38 137.642 1089.55 138.095 1088.81 137.877L1085.22 136.812C1084.48 136.594 1084.07 135.97 1084.26 135.325L1088.22 115.571C1088.41 114.927 1087.99 114.303 1087.25 114.084L1083.2 112.883C1082.56 112.692 1081.87 112.989 1081.59 113.605L1074.23 132.35C1073.94 132.967 1073.25 133.263 1072.61 133.072L1069.02 132.007C1068.19 131.762 1067.83 130.954 1068.14 130.245L1091.19 71.7928C1091.77 70.1634 1093.65 69.2196 1095.31 69.711L1100.65 71.2944C1102.3 71.7858 1103.37 73.6032 1103.06 75.3144ZM1088.22 108.463C1088.96 108.682 1089.7 108.201 1089.92 107.465L1094.97 82.3279C1094.97 82.3279 1095.19 81.5916 1094.73 81.4551C1094.36 81.3459 1094.05 82.0549 1094.05 82.0549L1084.67 105.909C1084.36 106.618 1084.72 107.426 1085.55 107.671L1088.22 108.463Z" fill="#F3D58C"/>
<path d="M1136.53 110.616C1135.82 112.808 1134.47 114.491 1132.78 115.66C1132.15 116.06 1131.94 116.7 1132.25 117.304C1132.94 119.241 1133.02 121.487 1132.34 123.588L1127.06 139.94C1125.41 145.055 1120 147.747 1114.97 146.123L1105.2 142.965C1104.47 142.729 1104.1 142.004 1104.33 141.273L1124.16 79.8856C1124.37 79.2461 1125.13 78.7837 1125.86 79.0198L1135.63 82.1777C1140.66 83.801 1143.44 89.2398 1141.81 94.2641L1136.53 110.616ZM1135.2 91.6234C1135.79 89.7964 1134.8 87.8626 1132.98 87.2723L1130.78 86.564C1130.14 86.3574 1129.33 86.6989 1129.09 87.4297L1122.19 108.806C1121.95 109.537 1122.41 110.291 1123.05 110.498L1125.24 111.206C1127.07 111.797 1129 110.807 1129.59 108.98L1135.2 91.6234ZM1115.77 140.53C1117.6 141.12 1119.53 140.131 1120.12 138.304L1125.73 120.947C1126.32 119.12 1125.33 117.186 1123.5 116.596L1121.31 115.888C1120.67 115.681 1119.85 116.023 1119.62 116.753L1112.71 138.129C1112.48 138.86 1112.94 139.615 1113.58 139.822L1115.77 140.53Z" fill="#F3D58C"/>
<path d="M1156.93 99.341C1158.67 94.3562 1164.08 91.6703 1169.16 93.4427L1171.06 94.1074C1176.04 95.8481 1178.7 101.351 1176.96 106.336L1161.13 151.652C1159.36 156.727 1153.89 159.291 1148.9 157.55L1147 156.886C1141.92 155.113 1139.33 149.733 1141.1 144.657L1156.93 99.341ZM1149.83 151.977C1151.65 152.61 1153.6 151.666 1154.24 149.854L1170.41 103.54C1171.04 101.728 1170.1 99.7712 1168.28 99.1382L1168.1 99.0749C1166.29 98.4419 1164.33 99.3856 1163.7 101.198L1147.53 147.512C1146.9 149.324 1147.84 151.281 1149.65 151.914L1149.83 151.977Z" fill="#F3D58C"/>
<path d="M1205.76 135.315C1204.82 137.831 1202.98 139.706 1200.76 140.716C1201.77 142.941 1201.91 145.559 1200.97 148.076L1192.02 171.89C1191.75 172.609 1191 172.945 1190.29 172.675L1186.15 171.122C1185.52 170.885 1185.1 170.11 1185.37 169.391L1194.52 145.037C1195.19 143.24 1194.3 141.262 1192.5 140.587L1190.34 139.776C1189.71 139.54 1188.85 139.932 1188.61 140.561L1178.72 166.892C1178.45 167.611 1177.71 167.947 1176.99 167.677L1172.94 166.157C1172.22 165.887 1171.89 165.145 1172.16 164.427L1194.85 104.038C1195.09 103.409 1195.86 102.982 1196.58 103.252L1206.2 106.866C1211.14 108.723 1213.66 114.287 1211.81 119.229L1205.76 135.315ZM1192.3 134.564L1194.46 135.375C1196.26 136.05 1198.23 135.152 1198.91 133.355L1205.32 116.281C1206 114.484 1205.1 112.505 1203.31 111.83L1201.15 111.02C1200.52 110.783 1199.69 111.086 1199.42 111.805L1191.52 132.833C1191.25 133.552 1191.67 134.328 1192.3 134.564Z" fill="#F3D58C"/>
<path d="M1229.75 117.352C1230 116.729 1230.78 116.321 1231.41 116.572L1248.68 123.531C1249.4 123.818 1249.68 124.656 1249.43 125.28L1248.32 128.04C1248.06 128.663 1247.28 129.071 1246.57 128.784L1242.47 127.134C1241.85 126.883 1241.01 127.167 1240.72 127.879L1218.73 182.464C1218.45 183.177 1217.7 183.496 1216.98 183.209L1212.89 181.559C1212.26 181.308 1211.86 180.522 1212.14 179.81L1234.13 125.224C1234.42 124.512 1234.1 123.763 1233.39 123.476L1229.38 121.861C1228.67 121.574 1228.39 120.736 1228.64 120.113L1229.75 117.352Z" fill="#F3D58C"/>
<path d="M1261.06 139.066C1263.15 134.216 1268.74 131.918 1273.67 134.043L1275.53 134.84C1280.37 136.927 1282.64 142.603 1280.55 147.453L1261.57 191.543C1259.45 196.481 1253.81 198.653 1248.96 196.566L1247.11 195.769C1242.17 193.643 1239.96 188.094 1242.08 183.156L1261.06 139.066ZM1250.28 191.072C1252.04 191.831 1254.06 191.027 1254.82 189.264L1274.21 144.204C1274.97 142.44 1274.17 140.422 1272.4 139.663L1272.23 139.587C1270.46 138.828 1268.45 139.632 1267.69 141.395L1248.29 186.455C1247.53 188.219 1248.34 190.237 1250.1 190.996L1250.28 191.072Z" fill="#F3D58C"/>
</svg>
